<svg width="256" height="256" viewBox="0 0 256 256" fill="none" xmlns="http://www.w3.org/2000/svg">
  <rect width="256" height="256" rx="64" fill="#FFFBF5"/>
  <path d="M210.04 64.8L109.7 103.97L69.34 66.33C62.88 60.31 52.44 66.46 54.59 74.98L72.88 125.58L43.8 136.94C34.68 140.5 34.68 153.41 43.8 156.97L72.88 168.33L54.59 218.93C52.44 227.45 62.88 233.6 69.34 227.58L109.7 189.94L210.04 229.11C222.26 233.88 235 224.88 235 211.76V82.15C235 69.03 222.26 60.03 210.04 64.8Z" fill="#F97316"/>
  <path d="M104.79 106.31L182.99 88.41C187.31 87.42 191.13 91.66 189.57 95.81L174.88 134.98L189.57 174.16C191.13 178.31 187.31 182.54 182.99 181.56L104.79 163.65L88.66 178.46C84.95 181.87 78.95 178.76 79.61 173.78L84.37 137.48L79.61 101.17C78.95 96.2 84.95 93.09 88.66 96.5L104.79 111.31V106.31Z" fill="white"/>
  <circle cx="74" cy="147" r="10" fill="#14B8A6"/>
</svg>
